<?xml version="1.0" encoding="UTF-8"?>
<svg width="1000px" height="760px" viewBox="0 0 1000 760" version="1.1" xmlns="http://www.w3.org/2000/svg" xmlns:xlink="http://www.w3.org/1999/xlink">
    <!-- Generator: Sketch 41.2 (35397) - http://www.bohemiancoding.com/sketch -->
    <title>Fond</title>
    <desc>Created with Sketch.</desc>
    <defs>
        <radialGradient cx="50%" cy="72.3869636%" fx="50%" fy="72.3869636%" r="58.9793506%" id="radialGradient-1">
            <stop stop-color="#3A9ADF" offset="0%"></stop>
            <stop stop-color="#383459" offset="100%"></stop>
        </radialGradient>
        <radialGradient cx="50%" cy="50%" fx="50%" fy="50%" r="50%" id="radialGradient-2">
            <stop stop-color="#5BACFF" offset="0%"></stop>
            <stop stop-color="#384069" stop-opacity="0" offset="100%"></stop>
        </radialGradient>
        <linearGradient x1="50%" y1="0%" x2="50%" y2="98.5311703%" id="linearGradient-3">
            <stop stop-color="#FFFFFF" offset="0%"></stop>
            <stop stop-color="#FFFFFF" stop-opacity="0" offset="100%"></stop>
        </linearGradient>
    </defs>
    <g id="Page-1" stroke="none" stroke-width="1" fill="none" fill-rule="evenodd">
        <g id="NuitBackground-Copy">
            <g id="Fond" transform="translate(-147.000000, 0.000000)">
                <rect fill="url(#radialGradient-1)" x="147" y="0" width="1000" height="760"></rect>
                <g id="Etoiles" transform="translate(0.000000, 43.000000)" fill="#FFFFFF">
                    <g transform="translate(628.500000, 88.500000) scale(-1, 1) translate(-628.500000, -88.500000) translate(201.000000, 15.000000)">
                        <ellipse id="Oval-2" cx="528.5" cy="3" rx="3.5" ry="3"></ellipse>
                        <circle id="Oval-2-Copy" cx="423.5" cy="123.5" r="1.5"></circle>
                        <ellipse id="Oval-2" cx="3.5" cy="39" rx="3.5" ry="3"></ellipse>
                        <ellipse id="Oval-2" cx="669.5" cy="144" rx="3.5" ry="3"></ellipse>
                        <ellipse id="Oval-2-Copy-2" cx="853" cy="7.5" rx="2" ry="1.5"></ellipse>
                    </g>
                    <g transform="translate(628.500000, 88.500000) scale(-1, 1) translate(-628.500000, -88.500000) translate(201.000000, 15.000000)">
                        <ellipse id="Oval-2" cx="528.5" cy="3" rx="3.5" ry="3"></ellipse>
                        <circle id="Oval-2-Copy" cx="423.5" cy="123.5" r="1.5"></circle>
                        <ellipse id="Oval-2" cx="3.5" cy="39" rx="3.5" ry="3"></ellipse>
                        <ellipse id="Oval-2" cx="669.5" cy="144" rx="3.5" ry="3"></ellipse>
                        <ellipse id="Oval-2-Copy-2" cx="853" cy="7.5" rx="2" ry="1.5"></ellipse>
                    </g>
                    <g transform="translate(327.000000, 73.000000)">
                        <ellipse id="Oval-2" cx="528.5" cy="3" rx="3.5" ry="3"></ellipse>
                        <circle id="Oval-2-Copy" cx="423.5" cy="123.5" r="1.5"></circle>
                        <ellipse id="Oval-2" cx="3.5" cy="39" rx="3.5" ry="3"></ellipse>
                        <ellipse id="Oval-2" cx="669.5" cy="144" rx="3.5" ry="3"></ellipse>
                    </g>
                    <g id="Etoiles-Copy-2" transform="translate(148.000000, 0.000000)">
                        <ellipse id="Oval-2" cx="528.5" cy="3" rx="3.5" ry="3"></ellipse>
                        <circle id="Oval-2-Copy" cx="423.5" cy="123.5" r="1.5"></circle>
                        <ellipse id="Oval-2" cx="3.5" cy="39" rx="3.5" ry="3"></ellipse>
                        <ellipse id="Oval-2" cx="669.5" cy="144" rx="3.5" ry="3"></ellipse>
                        <ellipse id="Oval-2-Copy-2" cx="853" cy="7.5" rx="2" ry="1.5"></ellipse>
                    </g>
                    <g id="Etoiles-Copy" transform="translate(0.000000, 220.000000)">
                        <g id="Etoiles" transform="translate(427.500000, 73.500000) scale(-1, 1) translate(-427.500000, -73.500000) ">
                            <ellipse id="Oval-2" cx="528.5" cy="3" rx="3.5" ry="3"></ellipse>
                            <circle id="Oval-2-Copy" cx="423.5" cy="123.5" r="1.5"></circle>
                            <ellipse id="Oval-2" cx="3.5" cy="39" rx="3.5" ry="3"></ellipse>
                            <ellipse id="Oval-2" cx="669.5" cy="144" rx="3.5" ry="3"></ellipse>
                        </g>
                        <g id="Etoiles" transform="translate(127.000000, 20.000000)">
                            <ellipse id="Oval-2" cx="528.5" cy="3" rx="3.5" ry="3"></ellipse>
                            <circle id="Oval-2-Copy" cx="423.5" cy="123.5" r="1.5"></circle>
                            <ellipse id="Oval-2" cx="669.5" cy="144" rx="3.5" ry="3"></ellipse>
                            <ellipse id="Oval-2-Copy-2" cx="853" cy="7.5" rx="2" ry="1.5"></ellipse>
                        </g>
                    </g>
                </g>
                <g id="Lune" transform="translate(147.000000, 0.000000)">
                    <ellipse id="Lumire" fill="url(#radialGradient-2)" cx="117" cy="115.5" rx="117" ry="115.5"></ellipse>
                    <circle id="Oval-3" fill="#FFFFFF" cx="117.5" cy="115.5" r="57.5"></circle>
                    <circle id="Oval" fill="#D8D8D8" opacity="0.44361413" cx="141.5" cy="123.5" r="13.5"></circle>
                    <circle id="Oval-Copy" fill-opacity="0.486328125" fill="#D8D8D8" cx="103.5" cy="83.5" r="4.5"></circle>
                    <circle id="Oval-Copy-2" fill-opacity="0.462069746" fill="#D8D8D8" cx="87.5" cy="137.5" r="4.5"></circle>
                </g>
                <path d="M913.021603,130.5 C914.734849,130.5 1018.88792,62.1210732 1042.5,45.5 C1043.43656,44.8407329 1044.43076,45.4305608 1045.5,44.5 C1046.56924,43.5694392 1046.5216,42.1301099 1046.5216,42 C1046.5216,40.3431458 1044.9546,39 1043.0216,39 C1041.08861,39 1039.5216,40.3431458 1039.5216,42 C1039.5216,43.6568542 911.088606,130.5 913.021603,130.5 Z" id="EtoileFilante" fill="url(#linearGradient-3)"></path>
                <path d="M232.012296,277 C232.987467,277 292.270866,229.919427 305.710743,218.47541 C306.243829,218.021488 306.80972,218.427599 307.418327,217.786885 C308.026934,217.146171 307.999818,216.155158 307.999818,216.065574 C307.999818,214.924789 307.107888,214 306.007636,214 C304.907384,214 304.015454,214.924789 304.015454,216.065574 C304.015454,217.206359 230.912044,277 232.012296,277 Z" id="EtoileFilante" fill="url(#linearGradient-3)" transform="translate(270.000000, 245.500000) scale(1, -1) translate(-270.000000, -245.500000) "></path>
            </g>
        </g>
    </g>
</svg>