<?xml version="1.0" encoding="UTF-8"?>
<svg width="1000px" height="179px" viewBox="0 0 1000 179" version="1.1" xmlns="http://www.w3.org/2000/svg" xmlns:xlink="http://www.w3.org/1999/xlink">
    <!-- Generator: Sketch 41.2 (35397) - http://www.bohemiancoding.com/sketch -->
    <title>Footer</title>
    <desc>Created with Sketch.</desc>
    <defs></defs>
    <g id="Page-1" stroke="none" stroke-width="1" fill="none" fill-rule="evenodd">
        <g id="NuitBackground-Copy" transform="translate(0.000000, -581.000000)">
            <g id="Footer" transform="translate(-81.000000, 581.000000)">
                <g id="Montagnes">
                    <path d="M91.0065447,183.794307 C207.34311,117.523971 379.924397,53.1755441 379.924397,53.1755441 C379.924397,53.1755441 477.6166,194.708112 654.3083,194.708112 C831,194.708112 882.546466,43 882.546466,43 C882.546466,43 1014.94825,95.2913112 1076.37272,144.042353 C1130.00736,186.610807 1170.6549,226.480003 1170.6549,226.480003 L81,223.455803 C81,223.455803 -25.3300203,250.064644 91.0065447,183.794307 Z" id="Path-3" fill="#396599"></path>
                    <path d="M0,132.292564 L152.471538,40.7699154 C152.471538,40.7699154 325.5,172.51868 360.249505,169.553412 C411,172.51868 627.791959,28.1608149 627.791959,28.1608149 C627.791959,28.1608149 747.5,162 814.5,162 C881.5,162 1081.05013,-2.27373675e-13 1081.05013,-2.27373675e-13 L1080.75587,267.049567 L9.35751216,268.866631 L0,132.292564 Z" id="Path-2" fill="#38446E"></path>
                </g>
                <g id="Maison" transform="translate(607.000000, 106.000000)">
                    <polygon id="Path-5" fill="#353044" points="4 31.5 39.0035712 31.5 39.0035712 12.4735144 4 12.4735144"></polygon>
                    <polyline id="Path-6" stroke="#353044" stroke-width="2" fill="#353044" points="0 16 22 0.5 44 15.5"></polyline>
                    <polygon id="Path-7" fill="#FFFBCE" points="14 18 14 25 17.5 25 17.5 18"></polygon>
                    <polygon id="Path-7-Copy" fill="#514A65" points="27 18 27 25 30.5 25 30.5 18"></polygon>
                </g>
                <g id="Sapins" transform="translate(139.000000, 36.000000)" fill="#1A1E3C">
                    <g id="UnSapin-Copy-10" transform="translate(482.000000, 18.000000)">
                        <polygon id="Sapin" points="0 19.5 6 19.5 3 0.473514375"></polygon>
                        <polygon id="Sapin" fill-opacity="0.364187047" transform="translate(4.250000, 21.750000) scale(1, -1) translate(-4.250000, -21.750000) " points="0 24 6 24 8.5 19.5"></polygon>
                    </g>
                    <g id="UnSapin-Copy" transform="translate(367.000000, 99.000000)">
                        <polygon id="Sapin" points="0 19.5 6 19.5 3 0.473514375"></polygon>
                        <polygon id="Sapin" fill-opacity="0.364187047" transform="translate(4.250000, 21.750000) scale(1, -1) translate(-4.250000, -21.750000) " points="0 24 6 24 8.5 19.5"></polygon>
                    </g>
                    <g id="UnSapin-Copy-9" transform="translate(116.000000, 110.000000)">
                        <polygon id="Sapin" points="0 19.5 6 19.5 3 0.473514375"></polygon>
                        <polygon id="Sapin" fill-opacity="0.364187047" transform="translate(4.250000, 21.750000) scale(1, -1) translate(-4.250000, -21.750000) " points="0 24 6 24 8.5 19.5"></polygon>
                    </g>
                    <g id="UnSapin-Copy-11" transform="translate(75.000000, 65.000000)">
                        <polygon id="Sapin" points="0 19.5 6 19.5 3 0.473514375"></polygon>
                        <polygon id="Sapin" fill-opacity="0.364187047" transform="translate(4.250000, 21.750000) scale(1, -1) translate(-4.250000, -21.750000) " points="0 24 6 24 8.5 19.5"></polygon>
                    </g>
                    <g id="UnSapin-Copy-12">
                        <polygon id="Sapin" points="0 19.5 6 19.5 3 0.473514375"></polygon>
                        <polygon id="Sapin" fill-opacity="0.364187047" transform="translate(4.250000, 21.750000) scale(1, -1) translate(-4.250000, -21.750000) " points="0 24 6 24 8.5 19.5"></polygon>
                    </g>
                    <g id="UnSapin-Copy-2" transform="translate(562.000000, 102.000000)">
                        <polygon id="Sapin" points="0 19.5 6 19.5 3 0.473514375"></polygon>
                        <polygon id="Sapin" fill-opacity="0.364187047" transform="translate(4.250000, 21.750000) scale(1, -1) translate(-4.250000, -21.750000) " points="0 24 6 24 8.5 19.5"></polygon>
                    </g>
                    <g id="UnSapin-Copy-3" transform="translate(737.000000, 99.000000)">
                        <polygon id="Sapin" points="0 19.5 6 19.5 3 0.473514375"></polygon>
                        <polygon id="Sapin" fill-opacity="0.364187047" transform="translate(4.250000, 21.750000) scale(1, -1) translate(-4.250000, -21.750000) " points="0 24 6 24 8.5 19.5"></polygon>
                    </g>
                    <g id="UnSapin-Copy-4" transform="translate(826.000000, 36.000000)">
                        <polygon id="Sapin" points="0 19.5 6 19.5 3 0.473514375"></polygon>
                        <polygon id="Sapin" fill-opacity="0.364187047" transform="translate(4.250000, 21.750000) scale(1, -1) translate(-4.250000, -21.750000) " points="0 24 6 24 8.5 19.5"></polygon>
                    </g>
                    <g id="UnSapin-Copy-5" transform="translate(867.000000, 90.000000)">
                        <polygon id="Sapin" points="0 19.5 6 19.5 3 0.473514375"></polygon>
                        <polygon id="Sapin" fill-opacity="0.364187047" transform="translate(4.250000, 21.750000) scale(1, -1) translate(-4.250000, -21.750000) " points="0 24 6 24 8.5 19.5"></polygon>
                    </g>
                    <g id="UnSapin-Copy-6" transform="translate(910.000000, 30.000000)">
                        <polygon id="Sapin" points="0 19.5 6 19.5 3 0.473514375"></polygon>
                        <polygon id="Sapin" fill-opacity="0.364187047" transform="translate(4.250000, 21.750000) scale(1, -1) translate(-4.250000, -21.750000) " points="0 24 6 24 8.5 19.5"></polygon>
                    </g>
                    <g id="UnSapin" transform="translate(414.000000, 77.000000)">
                        <polygon id="Sapin" points="0 19.5 6 19.5 3 0.473514375"></polygon>
                        <polygon id="Sapin" fill-opacity="0.364187047" transform="translate(4.250000, 21.750000) scale(1, -1) translate(-4.250000, -21.750000) " points="0 24 6 24 8.5 19.5"></polygon>
                    </g>
                </g>
                <g id="Ville" transform="translate(63.000000, 38.000000)">
                    <g id="Immeubles">
                        <g id="Immeuble" transform="translate(100.000000, 0.000000)">
                            <polygon id="Path-4" fill="#353044" points="0 107.5 35.0142828 107.5 35.0142828 7.4885354 0 7.4885354"></polygon>
                            <polygon id="Path-8" fill="#353044" points="12 8.50004511 12 0 16.5276926 0 16.5276926 4.87193855 16.5276926 8.50004511 22 8.5 22 4.96446609 16.5276926 4.96446609 16.5276926 8.5"></polygon>
                            <g id="Etage" transform="translate(4.000000, 13.000000)">
                                <rect id="Rectangle-2" fill="#FEFFCC" x="0" y="0" width="2" height="5"></rect>
                                <rect id="Rectangle-2-Copy" fill="#4B445F" x="5" y="0" width="2" height="5"></rect>
                                <rect id="Rectangle-2-Copy-2" fill="#4B4460" x="10" y="0" width="2" height="5"></rect>
                                <rect id="Rectangle-2-Copy-3" fill="#FDFFCC" x="15" y="0" width="2" height="5"></rect>
                                <rect id="Rectangle-2-Copy-4" fill="#FDFFCC" x="20" y="0" width="2" height="5"></rect>
                                <rect id="Rectangle-2-Copy-5" fill="#FDFFCC" x="25" y="0" width="2" height="5"></rect>
                            </g>
                            <g id="Etage-Copy" transform="translate(4.000000, 22.000000)">
                                <rect id="Rectangle-2" fill="#FEFFCC" x="0" y="0" width="2" height="5"></rect>
                                <rect id="Rectangle-2-Copy" fill="#4B445F" x="5" y="0" width="2" height="5"></rect>
                                <rect id="Rectangle-2-Copy-2" fill="#FDFFCC" x="10" y="0" width="2" height="5"></rect>
                                <rect id="Rectangle-2-Copy-3" fill="#4B4460" x="15" y="0" width="2" height="5"></rect>
                                <rect id="Rectangle-2-Copy-4" fill="#FDFFCC" x="20" y="0" width="2" height="5"></rect>
                                <rect id="Rectangle-2-Copy-5" fill="#FDFFCC" x="25" y="0" width="2" height="5"></rect>
                            </g>
                            <g id="Etage-Copy-2" transform="translate(4.000000, 31.000000)">
                                <rect id="Rectangle-2" fill="#FEFFCC" x="0" y="0" width="2" height="5"></rect>
                                <rect id="Rectangle-2-Copy" fill="#4B445F" x="5" y="0" width="2" height="5"></rect>
                                <rect id="Rectangle-2-Copy-2" fill="#FDFFCC" x="10" y="0" width="2" height="5"></rect>
                                <rect id="Rectangle-2-Copy-3" fill="#4B4460" x="15" y="0" width="2" height="5"></rect>
                                <rect id="Rectangle-2-Copy-4" fill="#4B4460" x="20" y="0" width="2" height="5"></rect>
                                <rect id="Rectangle-2-Copy-5" fill="#4B4460" x="25" y="0" width="2" height="5"></rect>
                            </g>
                            <g id="Etage-Copy-3" transform="translate(4.000000, 40.000000)">
                                <rect id="Rectangle-2" fill="#FEFFCC" x="0" y="0" width="2" height="5"></rect>
                                <rect id="Rectangle-2-Copy" fill="#4B445F" x="5" y="0" width="2" height="5"></rect>
                                <rect id="Rectangle-2-Copy-2" fill="#FDFFCC" x="10" y="0" width="2" height="5"></rect>
                                <rect id="Rectangle-2-Copy-3" fill="#4B4460" x="15" y="0" width="2" height="5"></rect>
                                <rect id="Rectangle-2-Copy-4" fill="#4B4460" x="20" y="0" width="2" height="5"></rect>
                                <rect id="Rectangle-2-Copy-5" fill="#4B4460" x="25" y="0" width="2" height="5"></rect>
                            </g>
                            <g id="Etage-Copy-4" transform="translate(4.000000, 49.000000)">
                                <rect id="Rectangle-2" fill="#4B4460" x="0" y="0" width="2" height="5"></rect>
                                <rect id="Rectangle-2-Copy" fill="#FDFFCC" x="5" y="0" width="2" height="5"></rect>
                                <rect id="Rectangle-2-Copy-2" fill="#4B4460" x="10" y="0" width="2" height="5"></rect>
                                <rect id="Rectangle-2-Copy-3" fill="#FDFFCC" x="15" y="0" width="2" height="5"></rect>
                                <rect id="Rectangle-2-Copy-4" fill="#FDFFCC" x="20" y="0" width="2" height="5"></rect>
                                <rect id="Rectangle-2-Copy-5" fill="#4B4460" x="25" y="0" width="2" height="5"></rect>
                            </g>
                            <g id="Etage-Copy-5" transform="translate(4.000000, 58.000000)">
                                <rect id="Rectangle-2" fill="#4B4460" x="0" y="0" width="2" height="5"></rect>
                                <rect id="Rectangle-2-Copy" fill="#FDFFCC" x="5" y="0" width="2" height="5"></rect>
                                <rect id="Rectangle-2-Copy-2" fill="#4B4460" x="10" y="0" width="2" height="5"></rect>
                                <rect id="Rectangle-2-Copy-3" fill="#4B4460" x="15" y="0" width="2" height="5"></rect>
                                <rect id="Rectangle-2-Copy-4" fill="#FDFFCC" x="20" y="0" width="2" height="5"></rect>
                                <rect id="Rectangle-2-Copy-5" fill="#4B4460" x="25" y="0" width="2" height="5"></rect>
                            </g>
                            <g id="Etage-Copy-6" transform="translate(4.000000, 67.000000)">
                                <rect id="Rectangle-2" fill="#4B4460" x="0" y="0" width="2" height="5"></rect>
                                <rect id="Rectangle-2-Copy" fill="#FDFFCC" x="5" y="0" width="2" height="5"></rect>
                                <rect id="Rectangle-2-Copy-2" fill="#FDFFCC" x="10" y="0" width="2" height="5"></rect>
                                <rect id="Rectangle-2-Copy-3" fill="#FDFFCC" x="15" y="0" width="2" height="5"></rect>
                                <rect id="Rectangle-2-Copy-4" fill="#FDFFCC" x="20" y="0" width="2" height="5"></rect>
                                <rect id="Rectangle-2-Copy-5" fill="#4B4460" x="25" y="0" width="2" height="5"></rect>
                            </g>
                            <g id="Etage-Copy-7" transform="translate(4.000000, 76.000000)">
                                <rect id="Rectangle-2" fill="#FDFFCC" x="0" y="0" width="2" height="5"></rect>
                                <rect id="Rectangle-2-Copy" fill="#FDFFCC" x="5" y="0" width="2" height="5"></rect>
                                <rect id="Rectangle-2-Copy-2" fill="#4B4460" x="10" y="0" width="2" height="5"></rect>
                                <rect id="Rectangle-2-Copy-3" fill="#4B4460" x="15" y="0" width="2" height="5"></rect>
                                <rect id="Rectangle-2-Copy-4" fill="#FDFFCC" x="20" y="0" width="2" height="5"></rect>
                                <rect id="Rectangle-2-Copy-5" fill="#FDFFCC" x="25" y="0" width="2" height="5"></rect>
                            </g>
                            <g id="Etage-Copy-8" transform="translate(4.000000, 84.000000)">
                                <rect id="Rectangle-2" fill="#4B4460" x="0" y="0" width="2" height="5"></rect>
                                <rect id="Rectangle-2-Copy" fill="#FDFFCC" x="5" y="0" width="2" height="5"></rect>
                                <rect id="Rectangle-2-Copy-2" fill="#4B4460" x="10" y="0" width="2" height="5"></rect>
                                <rect id="Rectangle-2-Copy-3" fill="#FDFFCC" x="15" y="0" width="2" height="5"></rect>
                                <rect id="Rectangle-2-Copy-4" fill="#FDFFCC" x="20" y="0" width="2" height="5"></rect>
                                <rect id="Rectangle-2-Copy-5" fill="#4B4460" x="25" y="0" width="2" height="5"></rect>
                            </g>
                            <g id="Etage-Copy-9" transform="translate(4.000000, 92.000000)">
                                <rect id="Rectangle-2" fill="#4B4460" x="0" y="0" width="2" height="5"></rect>
                                <rect id="Rectangle-2-Copy" fill="#FDFFCC" x="5" y="0" width="2" height="5"></rect>
                                <rect id="Rectangle-2-Copy-2" fill="#4B4460" x="10" y="0" width="2" height="5"></rect>
                                <rect id="Rectangle-2-Copy-3" fill="#FDFFCC" x="15" y="0" width="2" height="5"></rect>
                                <rect id="Rectangle-2-Copy-4" fill="#FDFFCC" x="20" y="0" width="2" height="5"></rect>
                                <rect id="Rectangle-2-Copy-5" fill="#4B4460" x="25" y="0" width="2" height="5"></rect>
                            </g>
                            <g id="Etage-Copy-10" transform="translate(4.000000, 100.000000)">
                                <rect id="Rectangle-2" fill="#4B4460" x="0" y="0" width="2" height="5"></rect>
                                <rect id="Rectangle-2-Copy" fill="#FDFFCC" x="5" y="0" width="2" height="5"></rect>
                                <rect id="Rectangle-2-Copy-4" fill="#FDFFCC" x="20" y="0" width="2" height="5"></rect>
                                <rect id="Rectangle-2-Copy-5" fill="#4B4460" x="25" y="0" width="2" height="5"></rect>
                            </g>
                            <polygon id="Porte" fill="#4B4460" points="15 107.5 15 100 20 100 20 107.5"></polygon>
                        </g>
                        <g id="Immeuble2" transform="translate(0.000000, 24.000000)">
                            <polygon id="Path-4" fill="#353044" points="0 107.5 35.0142828 107.5 35.0142828 7.4885354 0 7.4885354"></polygon>
                            <polygon id="Path-8" fill="#353044" points="12 8.50004511 12 0 16.5276926 0 16.5276926 4.87193855 16.5276926 8.50004511 22 8.5 22 4.96446609 16.5276926 4.96446609 16.5276926 8.5"></polygon>
                            <g id="Etage" transform="translate(4.000000, 13.000000)" fill="#FDFFCC">
                                <rect id="Rectangle-2-Copy-3" x="15" y="0" width="2" height="5"></rect>
                                <rect id="Rectangle-2-Copy-4" x="20" y="0" width="2" height="5"></rect>
                                <rect id="Rectangle-2-Copy-5" x="25" y="0" width="2" height="5"></rect>
                            </g>
                            <g id="Etage-Copy" transform="translate(4.000000, 22.000000)">
                                <rect id="Rectangle-2-Copy-3" fill="#4B4460" x="15" y="0" width="2" height="5"></rect>
                                <rect id="Rectangle-2-Copy-4" fill="#FDFFCC" x="20" y="0" width="2" height="5"></rect>
                                <rect id="Rectangle-2-Copy-5" fill="#FDFFCC" x="25" y="0" width="2" height="5"></rect>
                            </g>
                            <g id="Etage-Copy-2" transform="translate(4.000000, 31.000000)" fill="#4B4460">
                                <rect id="Rectangle-2-Copy-3" x="15" y="0" width="2" height="5"></rect>
                                <rect id="Rectangle-2-Copy-4" x="20" y="0" width="2" height="5"></rect>
                                <rect id="Rectangle-2-Copy-5" x="25" y="0" width="2" height="5"></rect>
                            </g>
                            <g id="Etage-Copy-3" transform="translate(4.000000, 40.000000)" fill="#4B4460">
                                <rect id="Rectangle-2-Copy-3" x="15" y="0" width="2" height="5"></rect>
                                <rect id="Rectangle-2-Copy-4" x="20" y="0" width="2" height="5"></rect>
                                <rect id="Rectangle-2-Copy-5" x="25" y="0" width="2" height="5"></rect>
                            </g>
                            <g id="Etage-Copy-4" transform="translate(4.000000, 49.000000)">
                                <rect id="Rectangle-2-Copy-3" fill="#FDFFCC" x="15" y="0" width="2" height="5"></rect>
                                <rect id="Rectangle-2-Copy-4" fill="#FDFFCC" x="20" y="0" width="2" height="5"></rect>
                                <rect id="Rectangle-2-Copy-5" fill="#4B4460" x="25" y="0" width="2" height="5"></rect>
                            </g>
                            <g id="Etage-Copy-5" transform="translate(4.000000, 58.000000)">
                                <rect id="Rectangle-2-Copy-3" fill="#4B4460" x="15" y="0" width="2" height="5"></rect>
                                <rect id="Rectangle-2-Copy-4" fill="#FDFFCC" x="20" y="0" width="2" height="5"></rect>
                                <rect id="Rectangle-2-Copy-5" fill="#4B4460" x="25" y="0" width="2" height="5"></rect>
                            </g>
                            <g id="Etage-Copy-6" transform="translate(4.000000, 67.000000)">
                                <rect id="Rectangle-2-Copy-3" fill="#FDFFCC" x="15" y="0" width="2" height="5"></rect>
                                <rect id="Rectangle-2-Copy-4" fill="#FDFFCC" x="20" y="0" width="2" height="5"></rect>
                                <rect id="Rectangle-2-Copy-5" fill="#4B4460" x="25" y="0" width="2" height="5"></rect>
                            </g>
                            <g id="Etage-Copy-7" transform="translate(4.000000, 76.000000)">
                                <rect id="Rectangle-2-Copy-3" fill="#4B4460" x="15" y="0" width="2" height="5"></rect>
                                <rect id="Rectangle-2-Copy-4" fill="#FDFFCC" x="20" y="0" width="2" height="5"></rect>
                                <rect id="Rectangle-2-Copy-5" fill="#FDFFCC" x="25" y="0" width="2" height="5"></rect>
                            </g>
                            <g id="Etage-Copy-8" transform="translate(4.000000, 84.000000)">
                                <rect id="Rectangle-2-Copy-3" fill="#FDFFCC" x="15" y="0" width="2" height="5"></rect>
                                <rect id="Rectangle-2-Copy-4" fill="#FDFFCC" x="20" y="0" width="2" height="5"></rect>
                                <rect id="Rectangle-2-Copy-5" fill="#4B4460" x="25" y="0" width="2" height="5"></rect>
                            </g>
                            <g id="Etage-Copy-9" transform="translate(4.000000, 92.000000)">
                                <rect id="Rectangle-2-Copy-3" fill="#FDFFCC" x="15" y="0" width="2" height="5"></rect>
                                <rect id="Rectangle-2-Copy-4" fill="#FDFFCC" x="20" y="0" width="2" height="5"></rect>
                                <rect id="Rectangle-2-Copy-5" fill="#4B4460" x="25" y="0" width="2" height="5"></rect>
                            </g>
                            <g id="Etage-Copy-10" transform="translate(4.000000, 100.000000)">
                                <rect id="Rectangle-2-Copy-4" fill="#FDFFCC" x="20" y="0" width="2" height="5"></rect>
                                <rect id="Rectangle-2-Copy-5" fill="#4B4460" x="25" y="0" width="2" height="5"></rect>
                            </g>
                            <polygon id="Porte" fill="#4B4460" points="15 107.5 15 100 20 100 20 107.5"></polygon>
                        </g>
                        <g id="ImmeublePetit" transform="translate(50.000000, 31.000000)">
                            <polygon id="Path-4" fill="#353044" points="0 76.5 35.0142828 76.5 35.0142828 7 0 7"></polygon>
                            <polygon id="Path-8" fill="#353044" points="21 8.50004511 21 0 25.5276926 0 25.5276926 4.87193855 25.5276926 8.50004511 31 8.5 31 4.96446609 25.5276926 4.96446609 25.5276926 8.5"></polygon>
                            <g id="Etage-Copy-3" transform="translate(4.000000, 9.000000)">
                                <rect id="Rectangle-2" fill="#FEFFCC" x="0" y="0" width="2" height="5"></rect>
                                <rect id="Rectangle-2-Copy" fill="#4B445F" x="5" y="0" width="2" height="5"></rect>
                                <rect id="Rectangle-2-Copy-2" fill="#FDFFCC" x="10" y="0" width="2" height="5"></rect>
                                <rect id="Rectangle-2-Copy-3" fill="#4B4460" x="15" y="0" width="2" height="5"></rect>
                                <rect id="Rectangle-2-Copy-4" fill="#4B4460" x="20" y="0" width="2" height="5"></rect>
                                <rect id="Rectangle-2-Copy-5" fill="#4B4460" x="25" y="0" width="2" height="5"></rect>
                            </g>
                            <g id="Etage-Copy-4" transform="translate(4.000000, 18.000000)">
                                <rect id="Rectangle-2" fill="#4B4460" x="0" y="0" width="2" height="5"></rect>
                                <rect id="Rectangle-2-Copy" fill="#FDFFCC" x="5" y="0" width="2" height="5"></rect>
                                <rect id="Rectangle-2-Copy-2" fill="#4B4460" x="10" y="0" width="2" height="5"></rect>
                                <rect id="Rectangle-2-Copy-3" fill="#FDFFCC" x="15" y="0" width="2" height="5"></rect>
                                <rect id="Rectangle-2-Copy-4" fill="#FDFFCC" x="20" y="0" width="2" height="5"></rect>
                                <rect id="Rectangle-2-Copy-5" fill="#4B4460" x="25" y="0" width="2" height="5"></rect>
                            </g>
                            <g id="Etage-Copy-5" transform="translate(4.000000, 27.000000)">
                                <rect id="Rectangle-2" fill="#4B4460" x="0" y="0" width="2" height="5"></rect>
                                <rect id="Rectangle-2-Copy" fill="#FDFFCC" x="5" y="0" width="2" height="5"></rect>
                                <rect id="Rectangle-2-Copy-2" fill="#4B4460" x="10" y="0" width="2" height="5"></rect>
                                <rect id="Rectangle-2-Copy-3" fill="#4B4460" x="15" y="0" width="2" height="5"></rect>
                                <rect id="Rectangle-2-Copy-4" fill="#4B4460" x="20" y="0" width="2" height="5"></rect>
                                <rect id="Rectangle-2-Copy-5" fill="#4B4460" x="25" y="0" width="2" height="5"></rect>
                            </g>
                            <g id="Etage-Copy-6" transform="translate(4.000000, 36.000000)" fill="#4B4460">
                                <rect id="Rectangle-2" x="0" y="0" width="2" height="5"></rect>
                                <rect id="Rectangle-2-Copy" x="5" y="0" width="2" height="5"></rect>
                                <rect id="Rectangle-2-Copy-2" x="10" y="0" width="2" height="5"></rect>
                                <rect id="Rectangle-2-Copy-3" x="15" y="0" width="2" height="5"></rect>
                                <rect id="Rectangle-2-Copy-4" x="20" y="0" width="2" height="5"></rect>
                                <rect id="Rectangle-2-Copy-5" x="25" y="0" width="2" height="5"></rect>
                            </g>
                            <g id="Etage-Copy-7" transform="translate(4.000000, 45.000000)">
                                <rect id="Rectangle-2" fill="#4B4460" x="0" y="0" width="2" height="5"></rect>
                                <rect id="Rectangle-2-Copy" fill="#FDFFCC" x="5" y="0" width="2" height="5"></rect>
                                <rect id="Rectangle-2-Copy-2" fill="#4B4460" x="10" y="0" width="2" height="5"></rect>
                                <rect id="Rectangle-2-Copy-3" fill="#4B4460" x="15" y="0" width="2" height="5"></rect>
                                <rect id="Rectangle-2-Copy-4" fill="#4B4460" x="20" y="0" width="2" height="5"></rect>
                                <rect id="Rectangle-2-Copy-5" fill="#FDFFCC" x="25" y="0" width="2" height="5"></rect>
                            </g>
                            <g id="Etage-Copy-8" transform="translate(4.000000, 53.000000)">
                                <rect id="Rectangle-2" fill="#4B4460" x="0" y="0" width="2" height="5"></rect>
                                <rect id="Rectangle-2-Copy" fill="#FDFFCC" x="5" y="0" width="2" height="5"></rect>
                                <rect id="Rectangle-2-Copy-2" fill="#4B4460" x="10" y="0" width="2" height="5"></rect>
                                <rect id="Rectangle-2-Copy-3" fill="#FDFFCC" x="15" y="0" width="2" height="5"></rect>
                                <rect id="Rectangle-2-Copy-4" fill="#FDFFCC" x="20" y="0" width="2" height="5"></rect>
                                <rect id="Rectangle-2-Copy-5" fill="#4B4460" x="25" y="0" width="2" height="5"></rect>
                            </g>
                            <g id="Etage-Copy-9" transform="translate(4.000000, 61.000000)">
                                <rect id="Rectangle-2" fill="#4B4460" x="0" y="0" width="2" height="5"></rect>
                                <rect id="Rectangle-2-Copy" fill="#FDFFCC" x="5" y="0" width="2" height="5"></rect>
                                <rect id="Rectangle-2-Copy-2" fill="#4B4460" x="10" y="0" width="2" height="5"></rect>
                                <rect id="Rectangle-2-Copy-3" fill="#FDFFCC" x="15" y="0" width="2" height="5"></rect>
                                <rect id="Rectangle-2-Copy-4" fill="#FDFFCC" x="20" y="0" width="2" height="5"></rect>
                                <rect id="Rectangle-2-Copy-5" fill="#4B4460" x="25" y="0" width="2" height="5"></rect>
                            </g>
                            <g id="Etage-Copy-10" transform="translate(4.000000, 69.000000)">
                                <rect id="Rectangle-2" fill="#4B4460" x="0" y="0" width="2" height="5"></rect>
                                <rect id="Rectangle-2-Copy" fill="#FDFFCC" x="5" y="0" width="2" height="5"></rect>
                                <rect id="Rectangle-2-Copy-4" fill="#FDFFCC" x="20" y="0" width="2" height="5"></rect>
                                <rect id="Rectangle-2-Copy-5" fill="#4B4460" x="25" y="0" width="2" height="5"></rect>
                            </g>
                            <polygon id="Porte" fill="#4B4460" points="15 76.5 15 69 20 69 20 76.5"></polygon>
                        </g>
                    </g>
                    <path d="M133.5,117.5 C133.5,117.5 75.25,112 62.5,118 C49.75,124 62.5,139 34,139 C5.5,139 17,139 17,139" id="Route" stroke="#4B4460" stroke-width="7"></path>
                    <g id="Maison" transform="translate(74.000000, 113.000000)">
                        <polygon id="Path-5" fill="#353044" points="1.81818182 13.78125 17.728896 13.78125 17.728896 5.45716254 1.81818182 5.45716254"></polygon>
                        <polyline id="Path-6" stroke="#353044" stroke-width="2" fill="#353044" points="0 7 10 0.21875 20 6.78125"></polyline>
                        <polygon id="Path-7" fill="#514A65" points="6.36363636 7.875 6.36363636 10.9375 7.95454545 10.9375 7.95454545 7.875"></polygon>
                        <polygon id="Path-7-Copy" fill="#514A65" points="12.2727273 7.875 12.2727273 10.9375 13.8636364 10.9375 13.8636364 7.875"></polygon>
                    </g>
                    <g id="Maison-Copy-3" transform="translate(54.000000, 125.000000)">
                        <polygon id="Path-5" fill="#353044" points="1.81818182 13.78125 17.728896 13.78125 17.728896 5.45716254 1.81818182 5.45716254"></polygon>
                        <polyline id="Path-6" stroke="#353044" stroke-width="2" fill="#353044" points="0 7 10 0.21875 20 6.78125"></polyline>
                        <polygon id="Path-7" fill="#FFFBCE" points="6.36363636 7.875 6.36363636 10.9375 7.95454545 10.9375 7.95454545 7.875"></polygon>
                        <polygon id="Path-7-Copy" fill="#FFFACE" points="12.2727273 7.875 12.2727273 10.9375 13.8636364 10.9375 13.8636364 7.875"></polygon>
                    </g>
                    <g id="Maison-Copy" transform="translate(100.000000, 118.000000)">
                        <polygon id="Path-5" fill="#353044" points="1.81818182 13.78125 17.728896 13.78125 17.728896 5.45716254 1.81818182 5.45716254"></polygon>
                        <polyline id="Path-6" stroke="#353044" stroke-width="2" fill="#353044" points="0 7 10 0.21875 20 6.78125"></polyline>
                        <polygon id="Path-7" fill="#514A65" points="6.36363636 7.875 6.36363636 10.9375 7.95454545 10.9375 7.95454545 7.875"></polygon>
                        <polygon id="Path-7-Copy" fill="#FFFACE" points="12.2727273 7.875 12.2727273 10.9375 13.8636364 10.9375 13.8636364 7.875"></polygon>
                    </g>
                    <g id="Maison-Copy-2" transform="translate(129.000000, 111.000000)">
                        <polygon id="Path-5" fill="#353044" points="1.81818182 13.78125 17.728896 13.78125 17.728896 5.45716254 1.81818182 5.45716254"></polygon>
                        <polyline id="Path-6" stroke="#353044" stroke-width="2" fill="#353044" points="0 7 10 0.21875 20 6.78125"></polyline>
                        <polygon id="Path-7" fill="#FFFBCE" points="6.36363636 7.875 6.36363636 10.9375 7.95454545 10.9375 7.95454545 7.875"></polygon>
                        <polygon id="Path-7-Copy" fill="#514A65" points="12.2727273 7.875 12.2727273 10.9375 13.8636364 10.9375 13.8636364 7.875"></polygon>
                    </g>
                </g>
                <path d="M1092,33 C1092,33 1087.25478,24.1753053 1044,57.5 C1000.74522,90.8246947 985.286598,107.182224 963.5,132 C941.713402,156.817776 929,188.5 929,188.5" id="Path-10" stroke="#2C365B" stroke-width="10"></path>
            </g>
        </g>
    </g>
</svg>