<?xml version="1.0" encoding="UTF-8"?>
<svg width="895px" height="760px" viewBox="0 0 895 760" version="1.1" xmlns="http://www.w3.org/2000/svg" xmlns:xlink="http://www.w3.org/1999/xlink">
    <!-- Generator: Sketch 41.2 (35397) - http://www.bohemiancoding.com/sketch -->
    <title>Pluie</title>
    <desc>Created with Sketch.</desc>
    <defs>
        <linearGradient x1="50%" y1="0%" x2="50%" y2="100%" id="linearGradient-1">
            <stop stop-color="#6FB0E0" offset="0%"></stop>
            <stop stop-color="#5B82A0" offset="100%"></stop>
        </linearGradient>
        <path d="M835.535961,194 C835.535961,194 833.303838,202.589101 833.035961,205 C832.768083,207.410899 834.035961,209 835.535961,209 C837.035961,209 839.035961,208.5 838.535961,205 C838.035961,201.5 835.535961,194 835.535961,194 Z" id="path-2"></path>
        <path d="M750.535961,260 C750.535961,260 748.303838,268.589101 748.035961,271 C747.768083,273.410899 749.035961,275 750.535961,275 C752.035961,275 754.035961,274.5 753.535961,271 C753.035961,267.5 750.535961,260 750.535961,260 Z" id="path-3"></path>
        <path d="M721.535961,379 C721.535961,379 719.303838,387.589101 719.035961,390 C718.768083,392.410899 720.035961,394 721.535961,394 C723.035961,394 725.035961,393.5 724.535961,390 C724.035961,386.5 721.535961,379 721.535961,379 Z" id="path-4"></path>
        <path d="M891.535961,111 C891.535961,111 889.303838,119.589101 889.035961,122 C888.768083,124.410899 890.035961,126 891.535961,126 C893.035961,126 895.035961,125.5 894.535961,122 C894.035961,118.5 891.535961,111 891.535961,111 Z" id="path-5"></path>
        <path d="M881.535961,303 C881.535961,303 879.303838,311.589101 879.035961,314 C878.768083,316.410899 880.035961,318 881.535961,318 C883.035961,318 885.035961,317.5 884.535961,314 C884.035961,310.5 881.535961,303 881.535961,303 Z" id="path-6"></path>
        <path d="M790.535961,88 C790.535961,88 788.303838,96.5891007 788.035961,99 C787.768083,101.410899 789.035961,103 790.535961,103 C792.035961,103 794.035961,102.5 793.535961,99 C793.035961,95.5 790.535961,88 790.535961,88 Z" id="path-7"></path>
        <path d="M661.535961,187 C661.535961,187 659.303838,195.589101 659.035961,198 C658.768083,200.410899 660.035961,202 661.535961,202 C663.035961,202 665.035961,201.5 664.535961,198 C664.035961,194.5 661.535961,187 661.535961,187 Z" id="path-8"></path>
        <path d="M507.535961,126 C507.535961,126 505.303838,134.589101 505.035961,137 C504.768083,139.410899 506.035961,141 507.535961,141 C509.035961,141 511.035961,140.5 510.535961,137 C510.035961,133.5 507.535961,126 507.535961,126 Z" id="path-9"></path>
        <path d="M451.535961,253 C451.535961,253 449.303838,261.589101 449.035961,264 C448.768083,266.410899 450.035961,268 451.535961,268 C453.035961,268 455.035961,267.5 454.535961,264 C454.035961,260.5 451.535961,253 451.535961,253 Z" id="path-10"></path>
        <path d="M318.535961,160 C318.535961,160 316.303838,168.589101 316.035961,171 C315.768083,173.410899 317.035961,175 318.535961,175 C320.035961,175 322.035961,174.5 321.535961,171 C321.035961,167.5 318.535961,160 318.535961,160 Z" id="path-11"></path>
        <path d="M216.535961,202 C216.535961,202 214.303838,210.589101 214.035961,213 C213.768083,215.410899 215.035961,217 216.535961,217 C218.035961,217 220.035961,216.5 219.535961,213 C219.035961,209.5 216.535961,202 216.535961,202 Z" id="path-12"></path>
        <path d="M153.535961,371 C153.535961,371 151.303838,379.589101 151.035961,382 C150.768083,384.410899 152.035961,386 153.535961,386 C155.035961,386 157.035961,385.5 156.535961,382 C156.035961,378.5 153.535961,371 153.535961,371 Z" id="path-13"></path>
        <path d="M51.5359606,335 C51.5359606,335 49.3038383,343.589101 49.0359606,346 C48.7680829,348.410899 50.0359606,350 51.5359606,350 C53.0359606,350 55.0359606,349.5 54.5359606,346 C54.0359606,342.5 51.5359606,335 51.5359606,335 Z" id="path-14"></path>
        <path d="M77.5359606,252 C77.5359606,252 75.3038383,260.589101 75.0359606,263 C74.7680829,265.410899 76.0359606,267 77.5359606,267 C79.0359606,267 81.0359606,266.5 80.5359606,263 C80.0359606,259.5 77.5359606,252 77.5359606,252 Z" id="path-15"></path>
        <path d="M2.53596059,111 C2.53596059,111 0.303838284,119.589101 0.0359605883,122 C-0.231917108,124.410899 1.03596059,126 2.53596059,126 C4.03596059,126 6.03596059,125.5 5.53596059,122 C5.03596059,118.5 2.53596059,111 2.53596059,111 Z" id="path-16"></path>
        <path d="M198.535961,88 C198.535961,88 196.303838,96.5891007 196.035961,99 C195.768083,101.410899 197.035961,103 198.535961,103 C200.035961,103 202.035961,102.5 201.535961,99 C201.035961,95.5 198.535961,88 198.535961,88 Z" id="path-17"></path>
        <path d="M298.535961,28 C298.535961,28 296.303838,36.5891007 296.035961,39 C295.768083,41.4108993 297.035961,43 298.535961,43 C300.035961,43 302.035961,42.5 301.535961,39 C301.035961,35.5 298.535961,28 298.535961,28 Z" id="path-18"></path>
        <path d="M436.535961,0 C436.535961,0 434.303838,8.58910074 434.035961,11 C433.768083,13.4108993 435.035961,15 436.535961,15 C438.035961,15 440.035961,14.5 439.535961,11 C439.035961,7.5 436.535961,0 436.535961,0 Z" id="path-19"></path>
        <path d="M600.535961,16 C600.535961,16 598.303838,24.5891007 598.035961,27 C597.768083,29.4108993 599.035961,31 600.535961,31 C602.035961,31 604.035961,30.5 603.535961,27 C603.035961,23.5 600.535961,16 600.535961,16 Z" id="path-20"></path>
        <path d="M835.535961,194 C835.535961,194 833.303838,202.589101 833.035961,205 C832.768083,207.410899 834.035961,209 835.535961,209 C837.035961,209 839.035961,208.5 838.535961,205 C838.035961,201.5 835.535961,194 835.535961,194 Z" id="path-21"></path>
        <path d="M750.535961,260 C750.535961,260 748.303838,268.589101 748.035961,271 C747.768083,273.410899 749.035961,275 750.535961,275 C752.035961,275 754.035961,274.5 753.535961,271 C753.035961,267.5 750.535961,260 750.535961,260 Z" id="path-22"></path>
        <path d="M424.535961,440 C424.535961,440 422.303838,448.589101 422.035961,451 C421.768083,453.410899 423.035961,455 424.535961,455 C426.035961,455 428.035961,454.5 427.535961,451 C427.035961,447.5 424.535961,440 424.535961,440 Z" id="path-23"></path>
        <path d="M245.535961,455 C245.535961,455 243.303838,463.589101 243.035961,466 C242.768083,468.410899 244.035961,470 245.535961,470 C247.035961,470 249.035961,469.5 248.535961,466 C248.035961,462.5 245.535961,455 245.535961,455 Z" id="path-24"></path>
        <path d="M721.535961,379 C721.535961,379 719.303838,387.589101 719.035961,390 C718.768083,392.410899 720.035961,394 721.535961,394 C723.035961,394 725.035961,393.5 724.535961,390 C724.035961,386.5 721.535961,379 721.535961,379 Z" id="path-25"></path>
        <path d="M891.535961,111 C891.535961,111 889.303838,119.589101 889.035961,122 C888.768083,124.410899 890.035961,126 891.535961,126 C893.035961,126 895.035961,125.5 894.535961,122 C894.035961,118.5 891.535961,111 891.535961,111 Z" id="path-26"></path>
        <path d="M881.535961,303 C881.535961,303 879.303838,311.589101 879.035961,314 C878.768083,316.410899 880.035961,318 881.535961,318 C883.035961,318 885.035961,317.5 884.535961,314 C884.035961,310.5 881.535961,303 881.535961,303 Z" id="path-27"></path>
        <path d="M790.535961,88 C790.535961,88 788.303838,96.5891007 788.035961,99 C787.768083,101.410899 789.035961,103 790.535961,103 C792.035961,103 794.035961,102.5 793.535961,99 C793.035961,95.5 790.535961,88 790.535961,88 Z" id="path-28"></path>
        <path d="M661.535961,187 C661.535961,187 659.303838,195.589101 659.035961,198 C658.768083,200.410899 660.035961,202 661.535961,202 C663.035961,202 665.035961,201.5 664.535961,198 C664.035961,194.5 661.535961,187 661.535961,187 Z" id="path-29"></path>
        <path d="M507.535961,126 C507.535961,126 505.303838,134.589101 505.035961,137 C504.768083,139.410899 506.035961,141 507.535961,141 C509.035961,141 511.035961,140.5 510.535961,137 C510.035961,133.5 507.535961,126 507.535961,126 Z" id="path-30"></path>
        <path d="M451.535961,253 C451.535961,253 449.303838,261.589101 449.035961,264 C448.768083,266.410899 450.035961,268 451.535961,268 C453.035961,268 455.035961,267.5 454.535961,264 C454.035961,260.5 451.535961,253 451.535961,253 Z" id="path-31"></path>
        <path d="M318.535961,160 C318.535961,160 316.303838,168.589101 316.035961,171 C315.768083,173.410899 317.035961,175 318.535961,175 C320.035961,175 322.035961,174.5 321.535961,171 C321.035961,167.5 318.535961,160 318.535961,160 Z" id="path-32"></path>
        <path d="M216.535961,202 C216.535961,202 214.303838,210.589101 214.035961,213 C213.768083,215.410899 215.035961,217 216.535961,217 C218.035961,217 220.035961,216.5 219.535961,213 C219.035961,209.5 216.535961,202 216.535961,202 Z" id="path-33"></path>
        <path d="M153.535961,371 C153.535961,371 151.303838,379.589101 151.035961,382 C150.768083,384.410899 152.035961,386 153.535961,386 C155.035961,386 157.035961,385.5 156.535961,382 C156.035961,378.5 153.535961,371 153.535961,371 Z" id="path-34"></path>
        <path d="M51.5359606,335 C51.5359606,335 49.3038383,343.589101 49.0359606,346 C48.7680829,348.410899 50.0359606,350 51.5359606,350 C53.0359606,350 55.0359606,349.5 54.5359606,346 C54.0359606,342.5 51.5359606,335 51.5359606,335 Z" id="path-35"></path>
        <path d="M77.5359606,252 C77.5359606,252 75.3038383,260.589101 75.0359606,263 C74.7680829,265.410899 76.0359606,267 77.5359606,267 C79.0359606,267 81.0359606,266.5 80.5359606,263 C80.0359606,259.5 77.5359606,252 77.5359606,252 Z" id="path-36"></path>
        <path d="M2.53596059,111 C2.53596059,111 0.303838284,119.589101 0.0359605883,122 C-0.231917108,124.410899 1.03596059,126 2.53596059,126 C4.03596059,126 6.03596059,125.5 5.53596059,122 C5.03596059,118.5 2.53596059,111 2.53596059,111 Z" id="path-37"></path>
        <path d="M198.535961,88 C198.535961,88 196.303838,96.5891007 196.035961,99 C195.768083,101.410899 197.035961,103 198.535961,103 C200.035961,103 202.035961,102.5 201.535961,99 C201.035961,95.5 198.535961,88 198.535961,88 Z" id="path-38"></path>
    </defs>
    <g id="Page-1" stroke="none" stroke-width="1" fill="none" fill-rule="evenodd">
        <g id="NuitPluieBackground" transform="translate(-53.000000, 0.000000)">
            <g id="Pluie" transform="translate(53.000000, -90.000000)">
                <g transform="translate(0.000000, 470.000000)">
                    <g id="Path-12">
                        <use fill="#8F8F8F" xlink:href="#path-2"></use>
                        <use fill="url(#linearGradient-1)" xlink:href="#path-2"></use>
                    </g>
                    <g id="Path-12-Copy-12">
                        <use fill="#8F8F8F" xlink:href="#path-3"></use>
                        <use fill="url(#linearGradient-1)" xlink:href="#path-3"></use>
                    </g>
                    <g id="Path-12-Copy-17">
                        <use fill="#8F8F8F" xlink:href="#path-4"></use>
                        <use fill="url(#linearGradient-1)" xlink:href="#path-4"></use>
                    </g>
                    <g id="Path-12-Copy-13">
                        <use fill="#8F8F8F" xlink:href="#path-5"></use>
                        <use fill="url(#linearGradient-1)" xlink:href="#path-5"></use>
                    </g>
                    <g id="Path-12-Copy-14">
                        <use fill="#8F8F8F" xlink:href="#path-6"></use>
                        <use fill="url(#linearGradient-1)" xlink:href="#path-6"></use>
                    </g>
                    <g id="Path-12-Copy">
                        <use fill="#8F8F8F" xlink:href="#path-7"></use>
                        <use fill="url(#linearGradient-1)" xlink:href="#path-7"></use>
                    </g>
                    <g id="Path-12-Copy-2">
                        <use fill="#8F8F8F" xlink:href="#path-8"></use>
                        <use fill="url(#linearGradient-1)" xlink:href="#path-8"></use>
                    </g>
                    <g id="Path-12-Copy-3">
                        <use fill="#8F8F8F" xlink:href="#path-9"></use>
                        <use fill="url(#linearGradient-1)" xlink:href="#path-9"></use>
                    </g>
                    <g id="Path-12-Copy-20">
                        <use fill="#8F8F8F" xlink:href="#path-10"></use>
                        <use fill="url(#linearGradient-1)" xlink:href="#path-10"></use>
                    </g>
                    <g id="Path-12-Copy-4">
                        <use fill="#8F8F8F" xlink:href="#path-11"></use>
                        <use fill="url(#linearGradient-1)" xlink:href="#path-11"></use>
                    </g>
                    <g id="Path-12-Copy-5">
                        <use fill="#8F8F8F" xlink:href="#path-12"></use>
                        <use fill="url(#linearGradient-1)" xlink:href="#path-12"></use>
                    </g>
                    <g id="Path-12-Copy-15">
                        <use fill="#8F8F8F" xlink:href="#path-13"></use>
                        <use fill="url(#linearGradient-1)" xlink:href="#path-13"></use>
                    </g>
                    <g id="Path-12-Copy-16">
                        <use fill="#8F8F8F" xlink:href="#path-14"></use>
                        <use fill="url(#linearGradient-1)" xlink:href="#path-14"></use>
                    </g>
                    <g id="Path-12-Copy-10">
                        <use fill="#8F8F8F" xlink:href="#path-15"></use>
                        <use fill="url(#linearGradient-1)" xlink:href="#path-15"></use>
                    </g>
                    <g id="Path-12-Copy-11">
                        <use fill="#8F8F8F" xlink:href="#path-16"></use>
                        <use fill="url(#linearGradient-1)" xlink:href="#path-16"></use>
                    </g>
                    <g id="Path-12-Copy-6">
                        <use fill="#8F8F8F" xlink:href="#path-17"></use>
                        <use fill="url(#linearGradient-1)" xlink:href="#path-17"></use>
                    </g>
                    <g id="Path-12-Copy-7">
                        <use fill="#8F8F8F" xlink:href="#path-18"></use>
                        <use fill="url(#linearGradient-1)" xlink:href="#path-18"></use>
                    </g>
                    <g id="Path-12-Copy-8">
                        <use fill="#8F8F8F" xlink:href="#path-19"></use>
                        <use fill="url(#linearGradient-1)" xlink:href="#path-19"></use>
                    </g>
                    <g id="Path-12-Copy-9">
                        <use fill="#8F8F8F" xlink:href="#path-20"></use>
                        <use fill="url(#linearGradient-1)" xlink:href="#path-20"></use>
                    </g>
                </g>
                <g id="Pluie-Copy">
                    <g id="Path-12">
                        <use fill="#8F8F8F" xlink:href="#path-21"></use>
                        <use fill="url(#linearGradient-1)" xlink:href="#path-21"></use>
                    </g>
                    <g id="Path-12-Copy-12">
                        <use fill="#8F8F8F" xlink:href="#path-22"></use>
                        <use fill="url(#linearGradient-1)" xlink:href="#path-22"></use>
                    </g>
                    <g id="Path-12-Copy-18">
                        <use fill="#8F8F8F" xlink:href="#path-23"></use>
                        <use fill="url(#linearGradient-1)" xlink:href="#path-23"></use>
                    </g>
                    <g id="Path-12-Copy-19">
                        <use fill="#8F8F8F" xlink:href="#path-24"></use>
                        <use fill="url(#linearGradient-1)" xlink:href="#path-24"></use>
                    </g>
                    <g id="Path-12-Copy-17">
                        <use fill="#8F8F8F" xlink:href="#path-25"></use>
                        <use fill="url(#linearGradient-1)" xlink:href="#path-25"></use>
                    </g>
                    <g id="Path-12-Copy-13">
                        <use fill="#8F8F8F" xlink:href="#path-26"></use>
                        <use fill="url(#linearGradient-1)" xlink:href="#path-26"></use>
                    </g>
                    <g id="Path-12-Copy-14">
                        <use fill="#8F8F8F" xlink:href="#path-27"></use>
                        <use fill="url(#linearGradient-1)" xlink:href="#path-27"></use>
                    </g>
                    <g id="Path-12-Copy">
                        <use fill="#8F8F8F" xlink:href="#path-28"></use>
                        <use fill="url(#linearGradient-1)" xlink:href="#path-28"></use>
                    </g>
                    <g id="Path-12-Copy-2">
                        <use fill="#8F8F8F" xlink:href="#path-29"></use>
                        <use fill="url(#linearGradient-1)" xlink:href="#path-29"></use>
                    </g>
                    <g id="Path-12-Copy-3">
                        <use fill="#8F8F8F" xlink:href="#path-30"></use>
                        <use fill="url(#linearGradient-1)" xlink:href="#path-30"></use>
                    </g>
                    <g id="Path-12-Copy-20">
                        <use fill="#8F8F8F" xlink:href="#path-31"></use>
                        <use fill="url(#linearGradient-1)" xlink:href="#path-31"></use>
                    </g>
                    <g id="Path-12-Copy-4">
                        <use fill="#8F8F8F" xlink:href="#path-32"></use>
                        <use fill="url(#linearGradient-1)" xlink:href="#path-32"></use>
                    </g>
                    <g id="Path-12-Copy-5">
                        <use fill="#8F8F8F" xlink:href="#path-33"></use>
                        <use fill="url(#linearGradient-1)" xlink:href="#path-33"></use>
                    </g>
                    <g id="Path-12-Copy-15">
                        <use fill="#8F8F8F" xlink:href="#path-34"></use>
                        <use fill="url(#linearGradient-1)" xlink:href="#path-34"></use>
                    </g>
                    <g id="Path-12-Copy-16">
                        <use fill="#8F8F8F" xlink:href="#path-35"></use>
                        <use fill="url(#linearGradient-1)" xlink:href="#path-35"></use>
                    </g>
                    <g id="Path-12-Copy-10">
                        <use fill="#8F8F8F" xlink:href="#path-36"></use>
                        <use fill="url(#linearGradient-1)" xlink:href="#path-36"></use>
                    </g>
                    <g id="Path-12-Copy-11">
                        <use fill="#8F8F8F" xlink:href="#path-37"></use>
                        <use fill="url(#linearGradient-1)" xlink:href="#path-37"></use>
                    </g>
                    <g id="Path-12-Copy-6">
                        <use fill="#8F8F8F" xlink:href="#path-38"></use>
                        <use fill="url(#linearGradient-1)" xlink:href="#path-38"></use>
                    </g>
                </g>
            </g>
        </g>
    </g>
</svg>